<svg width="29" height="25" viewBox="0 0 29 25" fill="none" xmlns="http://www.w3.org/2000/svg">
<rect width="29" height="24.1667" rx="8" fill="#EAEAEA"/>
<path d="M10.4722 8.05556H9.66666C9.23937 8.05556 8.82958 8.2253 8.52744 8.52744C8.22529 8.82959 8.05555 9.23938 8.05555 9.66667V16.9167C8.05555 17.344 8.22529 17.7538 8.52744 18.0559C8.82958 18.358 9.23937 18.5278 9.66666 18.5278H16.9167C17.344 18.5278 17.7538 18.358 18.0559 18.0559C18.358 17.7538 18.5278 17.344 18.5278 16.9167V16.1111M17.7222 6.44445L20.1389 8.86112M21.2546 7.72125C21.5718 7.40399 21.7501 6.97369 21.7501 6.525C21.7501 6.07632 21.5718 5.64602 21.2546 5.32875C20.9373 5.01149 20.507 4.83325 20.0583 4.83325C19.6097 4.83325 19.1793 5.01149 18.8621 5.32875L12.0833 12.0833V14.5H14.5L21.2546 7.72125Z" stroke="#787878" stroke-width="1.20833" stroke-linecap="round" stroke-linejoin="round"/>
</svg>
