<svg width="193" height="25" viewBox="0 0 193 25" fill="none" xmlns="http://www.w3.org/2000/svg">
<g clip-path="url(#clip0_1_3)">
<path d="M8.72919 0.969235C8.72919 0.437719 8.29556 0 7.75509 0H0.9741C0.433632 0 0 0.431466 0 0.969235V7.0973C0 9.3922 1.19406 11.1931 3.24909 11.1931H11.7646C9.03713 11.1931 8.72919 8.9107 8.72919 6.77839V0.969235Z" fill="#FBB040"/>
<path d="M8.73547 7.30991C8.79832 9.27339 9.26966 11.1868 11.7646 11.1868H12.4119C14.0459 11.1868 15.9124 10.3927 17.4332 8.74813L24.4279 1.18184C25.0312 0.525263 24.7987 0 23.9063 0H16.4717C15.9375 0 15.2085 0.318909 14.844 0.712857L8.73547 7.31616V7.30991Z" fill="url(#paint0_linear_1_3)"/>
<path d="M17.2258 25H24.6604C25.5528 25 25.7854 24.4685 25.182 23.8182L17.4332 15.4452C15.9061 13.7944 14.0459 13.0065 12.4119 13.0065H3.24908C4.46828 13.0065 5.8823 13.8006 7.40943 15.4452L15.5919 24.2934C15.9564 24.6873 16.6854 25.0063 17.2196 25.0063L17.2258 25Z" fill="#FBB040"/>
<path d="M3.24909 13.0002C1.19406 13.0002 0 14.8011 0 17.096V24.037C0 24.5685 0.433631 25.0062 0.9741 25.0062H7.75509C8.28927 25.0062 8.72919 24.5748 8.72919 24.037V17.4212C8.72919 17.2399 8.72919 17.0585 8.74176 16.8772L7.41573 15.4452C5.88859 13.7944 4.47457 13.0065 3.25538 13.0065L3.24909 13.0002Z" fill="url(#paint1_linear_1_3)"/>
<path d="M29.9331 19.591V6.54075C29.9331 6.40944 29.9771 6.29688 30.0651 6.19683C30.1531 6.09678 30.2662 6.05301 30.4045 6.05301H32.1264C32.2521 6.05301 32.3652 6.10303 32.4595 6.19683C32.5538 6.29063 32.6041 6.40944 32.6041 6.54075V11.9497L37.6757 6.25936C37.7134 6.20934 37.7636 6.15931 37.8202 6.11554C37.8768 6.07177 37.9585 6.05301 38.0527 6.05301H40.0575C40.246 6.05301 40.3843 6.14055 40.466 6.30939C40.5477 6.47822 40.5225 6.63455 40.3843 6.77837L35.1367 12.6626L40.7676 19.3722C40.8242 19.4535 40.8556 19.5347 40.8556 19.6285C40.8556 19.6911 40.843 19.7599 40.8179 19.8224C40.7488 19.9912 40.6105 20.0788 40.4031 20.0788H38.2098C38.103 20.0788 38.0276 20.06 37.971 20.0287C37.9145 19.9975 37.8768 19.9662 37.8453 19.9412L32.5978 13.488V19.5973C32.5978 19.7286 32.5538 19.8412 32.4595 19.9349C32.3652 20.0287 32.2521 20.0788 32.1201 20.0788H30.3982C30.2536 20.0788 30.1342 20.0287 30.0525 19.9349C29.9708 19.8412 29.9268 19.7286 29.9268 19.5973L29.9331 19.591Z" fill="#414042"/>
<path d="M42.8478 19.6911V6.43445C42.8478 6.32815 42.8855 6.2406 42.9609 6.16556C43.0363 6.09053 43.1243 6.05301 43.2312 6.05301H45.0851C45.1919 6.05301 45.2799 6.09053 45.3553 6.16556C45.4307 6.2406 45.4685 6.32815 45.4685 6.43445V19.6911C45.4685 19.7974 45.4307 19.8849 45.3616 19.96C45.2925 20.035 45.1982 20.0725 45.0914 20.0725H43.2375C43.1306 20.0725 43.0426 20.035 42.9672 19.96C42.8918 19.8849 42.8541 19.7974 42.8541 19.6911H42.8478Z" fill="#414042"/>
<path d="M48.1331 19.6098L50.5338 6.15931C50.5463 6.07802 50.584 6.00923 50.6406 5.9467C50.6972 5.88417 50.7851 5.85291 50.8983 5.85291H51.2251C51.3885 5.85291 51.5016 5.91544 51.5581 6.04675L55.9887 15.5015H56.0453L60.4759 6.04675C60.5387 5.91544 60.6518 5.85291 60.809 5.85291H61.1357C61.2426 5.85291 61.3243 5.88417 61.3871 5.94045C61.45 5.99673 61.4877 6.07177 61.5002 6.15306L63.8758 19.6035C63.8821 19.641 63.8884 19.6848 63.8884 19.7223C63.8947 19.8161 63.8695 19.8912 63.8192 19.9475C63.7564 20.0287 63.6496 20.0663 63.5113 20.0663H61.6825C61.5882 20.0663 61.5128 20.035 61.4437 19.9662C61.3746 19.9037 61.3306 19.8349 61.2991 19.7599L60.1114 12.1748H60.0548L56.5292 20.0475C56.4789 20.1913 56.3658 20.2601 56.2024 20.2601H55.8316C55.6682 20.2601 55.5551 20.1913 55.486 20.0475L51.9164 12.1748H51.8598L50.6909 19.7599C50.6783 19.8224 50.6406 19.8912 50.5715 19.96C50.5086 20.0287 50.4269 20.06 50.3264 20.06H48.5164C48.2525 20.06 48.1205 19.9412 48.1205 19.6973C48.1205 19.6723 48.1205 19.641 48.1331 19.5973V19.6098Z" fill="#414042"/>
<path d="M69.5633 8.07277V6.42819C69.5633 6.32189 69.601 6.23435 69.6764 6.15931C69.7518 6.08427 69.8398 6.04675 69.9466 6.04675H78.7575C78.8644 6.04675 78.9524 6.08427 79.0278 6.15931C79.1032 6.23435 79.1409 6.32189 79.1409 6.42819V8.07277C79.1409 8.17907 79.1032 8.26661 79.0341 8.34165C78.9586 8.41669 78.8707 8.45421 78.7575 8.45421H75.6656V19.6848C75.6656 19.7911 75.6279 19.8787 75.5524 19.9537C75.477 20.0287 75.389 20.0663 75.2822 20.0663H73.422C73.3151 20.0663 73.2272 20.0287 73.158 19.9537C73.0889 19.8787 73.0512 19.7911 73.0512 19.6848V8.45421H69.9466C69.8398 8.45421 69.7518 8.41669 69.6764 8.3479C69.601 8.27912 69.5633 8.18532 69.5633 8.07277Z" fill="#414042"/>
<path d="M81.3719 19.6911V6.43445C81.3719 6.32815 81.4096 6.2406 81.485 6.16556C81.5604 6.09053 81.6484 6.05301 81.7552 6.05301H83.6092C83.716 6.05301 83.804 6.09053 83.8794 6.16556C83.9548 6.2406 83.9925 6.32815 83.9925 6.43445V11.7621H90.5661V6.43445C90.5661 6.32815 90.6038 6.2406 90.6793 6.16556C90.7547 6.09053 90.8427 6.05301 90.9495 6.05301H92.7971C92.904 6.05301 92.992 6.09053 93.0674 6.16556C93.1428 6.2406 93.1805 6.32815 93.1805 6.43445V19.6911C93.1805 19.7974 93.1428 19.8849 93.0737 19.96C93.0045 20.035 92.9103 20.0725 92.7971 20.0725H90.9495C90.8427 20.0725 90.7547 20.035 90.6793 19.96C90.6038 19.8849 90.5661 19.7974 90.5661 19.6911V14.1696H83.9925V19.6911C83.9925 19.7974 83.9548 19.8849 83.8857 19.96C83.8166 20.035 83.7223 20.0725 83.6155 20.0725H81.7615C81.6547 20.0725 81.5667 20.035 81.4913 19.96C81.4159 19.8849 81.3782 19.7974 81.3782 19.6911H81.3719Z" fill="#414042"/>
<path d="M94.9339 19.5535L101.193 6.07177C101.256 5.92795 101.369 5.85916 101.52 5.85916H101.734C101.841 5.85916 101.916 5.87792 101.966 5.91544C102.017 5.95296 102.054 6.00924 102.079 6.07177L108.282 19.5535C108.314 19.616 108.332 19.6786 108.332 19.7286C108.332 19.7974 108.314 19.8599 108.276 19.9099C108.207 20.0162 108.094 20.0663 107.943 20.0663H106.196C106.045 20.0663 105.925 20.035 105.844 19.9787C105.762 19.9224 105.68 19.8161 105.618 19.6661L104.625 17.5212H98.6103L97.6174 19.6661C97.5797 19.7724 97.5105 19.8599 97.4225 19.9412C97.3283 20.0225 97.2026 20.06 97.0392 20.06H95.2921C95.1413 20.06 95.0281 20.01 94.959 19.9037C94.9213 19.8474 94.9025 19.7849 94.9025 19.7223C94.9025 19.6723 94.9213 19.6098 94.9527 19.5473L94.9339 19.5535ZM99.5844 15.2889H103.632L101.621 10.8804H101.564L99.5907 15.2889H99.5844Z" fill="#414042"/>
<path d="M110.042 19.6911V6.21559C110.042 6.10929 110.08 6.02174 110.155 5.95921C110.23 5.89043 110.318 5.85916 110.425 5.85916H110.733C110.865 5.85916 110.978 5.90293 111.079 5.99673L119.293 14.7073H119.33V6.43445C119.33 6.32815 119.368 6.2406 119.443 6.16556C119.519 6.09053 119.607 6.05301 119.714 6.05301H121.574C121.681 6.05301 121.769 6.09053 121.838 6.16556C121.907 6.2406 121.945 6.32815 121.945 6.43445V19.9162C121.945 20.0225 121.907 20.1038 121.838 20.1726C121.769 20.2351 121.674 20.2726 121.574 20.2726H121.291C121.159 20.2726 121.046 20.2288 120.945 20.1351L112.7 11.0805H112.662V19.6911C112.662 19.7974 112.625 19.8849 112.556 19.96C112.48 20.035 112.392 20.0725 112.279 20.0725H110.438C110.331 20.0725 110.243 20.035 110.168 19.96C110.092 19.8849 110.054 19.7974 110.054 19.6911H110.042Z" fill="#414042"/>
<path d="M125.351 19.6911V6.43445C125.351 6.32815 125.389 6.2406 125.464 6.16556C125.539 6.09053 125.627 6.05301 125.734 6.05301H127.588C127.695 6.05301 127.783 6.09053 127.858 6.16556C127.934 6.2406 127.972 6.32815 127.972 6.43445V11.7621H134.545V6.43445C134.545 6.32815 134.583 6.2406 134.658 6.16556C134.734 6.09053 134.822 6.05301 134.929 6.05301H136.776C136.883 6.05301 136.971 6.09053 137.046 6.16556C137.122 6.2406 137.16 6.32815 137.16 6.43445V19.6911C137.16 19.7974 137.122 19.8849 137.053 19.96C136.984 20.035 136.889 20.0725 136.776 20.0725H134.929C134.822 20.0725 134.734 20.035 134.658 19.96C134.583 19.8849 134.545 19.7974 134.545 19.6911V14.1696H127.972V19.6911C127.972 19.7974 127.934 19.8849 127.865 19.96C127.796 20.035 127.701 20.0725 127.595 20.0725H125.741C125.634 20.0725 125.546 20.035 125.47 19.96C125.395 19.8849 125.357 19.7974 125.357 19.6911H125.351Z" fill="#414042"/>
<path d="M144.217 6.61579V6.31564C144.217 6.14055 144.305 6.05301 144.481 6.05301H153.135C153.311 6.05301 153.399 6.14055 153.392 6.31564V6.65956C153.392 6.83465 153.304 6.92219 153.135 6.91594H149.264V19.8099C149.264 19.985 149.157 20.0725 148.949 20.0725H148.585C148.409 20.0725 148.321 19.985 148.321 19.8099V6.90969H144.481C144.305 6.90969 144.217 6.80964 144.217 6.61579Z" fill="#414042"/>
<path d="M155.95 19.8036V6.31564C155.95 6.14055 156.038 6.05301 156.208 6.05301H164.284C164.459 6.05301 164.547 6.14055 164.541 6.31564V6.65956C164.541 6.83465 164.453 6.92219 164.284 6.91594H156.893V12.45H163.291C163.467 12.45 163.555 12.5375 163.555 12.7063V13.0503C163.555 13.2253 163.467 13.3129 163.291 13.3129H156.893V19.2158H164.284C164.459 19.2158 164.547 19.3034 164.541 19.4847V19.8036C164.541 19.985 164.453 20.0725 164.284 20.0725H156.208C156.032 20.0725 155.944 19.985 155.95 19.8099V19.8036Z" fill="#414042"/>
<path d="M166.489 13.0815C166.489 12.081 166.678 11.1368 167.061 10.2551C167.438 9.37342 167.96 8.61054 168.62 7.96647C169.28 7.32239 170.046 6.80964 170.933 6.4282C171.819 6.04676 172.761 5.85916 173.773 5.85916C174.785 5.85916 175.715 6.02174 176.501 6.34065C177.286 6.65956 178.003 7.12229 178.669 7.72885C178.725 7.78512 178.757 7.85391 178.757 7.9352C178.757 7.99148 178.732 8.04776 178.688 8.09153L178.361 8.43545C178.254 8.54175 178.141 8.5355 178.015 8.41669C177.437 7.91019 176.796 7.50999 176.086 7.21609C175.376 6.92219 174.603 6.77837 173.773 6.77837C172.887 6.77837 172.064 6.94095 171.297 7.27237C170.53 7.60378 169.864 8.06026 169.305 8.6293C168.739 9.20458 168.299 9.87367 167.979 10.6366C167.658 11.3994 167.495 12.2123 167.495 13.0753C167.495 13.9382 167.658 14.7511 167.979 15.514C168.299 16.2769 168.739 16.9397 169.305 17.5025C169.87 18.0653 170.53 18.5155 171.297 18.8469C172.064 19.1783 172.887 19.3472 173.773 19.3472C174.659 19.3472 175.42 19.1971 176.098 18.8907C176.777 18.5843 177.418 18.1778 178.021 17.6713C178.153 17.565 178.26 17.5525 178.348 17.6338L178.694 17.9777C178.75 18.0277 178.782 18.084 178.782 18.1403C178.782 18.1966 178.75 18.2529 178.694 18.3216C178.015 18.9907 177.248 19.4847 176.4 19.7974C175.552 20.11 174.678 20.2726 173.779 20.2726C172.768 20.2726 171.825 20.085 170.939 19.7161C170.053 19.3472 169.286 18.8344 168.626 18.1841C167.966 17.5337 167.451 16.7771 167.068 15.9017C166.69 15.0262 166.496 14.0883 166.496 13.0878L166.489 13.0815Z" fill="#414042"/>
<path d="M181.78 19.8036V6.31564C181.78 6.14055 181.868 6.05301 182.037 6.05301H182.458C182.634 6.05301 182.722 6.14055 182.722 6.31564V12.4437H191.759V6.31564C191.759 6.14055 191.847 6.05301 192.017 6.05301H192.438C192.614 6.05301 192.702 6.14055 192.702 6.31564V19.8099C192.702 19.985 192.614 20.0725 192.438 20.0725H192.017C191.841 20.0725 191.753 19.985 191.759 19.8099V13.3066H182.722V19.8099C182.722 19.985 182.634 20.0725 182.458 20.0725H182.037C181.861 20.0725 181.773 19.985 181.78 19.8099V19.8036Z" fill="#414042"/>
<path d="M99.9049 3.25161C99.8609 3.13281 99.8735 2.99524 99.9426 2.84516L100.42 2.00099C100.489 1.86342 100.59 1.79464 100.722 1.78838C100.854 1.78213 100.98 1.8134 101.086 1.87593L103.782 3.48923C103.877 3.51425 103.946 3.58303 103.99 3.69559C104.034 3.80814 104.028 3.91445 103.977 4.02075L103.663 4.59604C103.556 4.84616 103.343 4.90869 103.035 4.78988L100.137 3.50799C100.031 3.45171 99.9552 3.37042 99.9112 3.25161H99.9049Z" fill="#414042"/>
</g>
<defs>
<linearGradient id="paint0_linear_1_3" x1="21.7193" y1="-0.769134" x2="7.90567" y2="12.9881" gradientUnits="userSpaceOnUse">
<stop offset="0.39" stop-color="#FBAB2E"/>
<stop offset="1" stop-color="#795321"/>
</linearGradient>
<linearGradient id="paint1_linear_1_3" x1="3.6136" y1="23.4492" x2="6.13477" y2="12.632" gradientUnits="userSpaceOnUse">
<stop offset="0.39" stop-color="#FBAB2E"/>
<stop offset="1" stop-color="#795321"/>
</linearGradient>
<clipPath id="clip0_1_3">
<rect width="192.708" height="25" fill="white"/>
</clipPath>
</defs>
</svg>
