<svg width="20" height="20" viewBox="0 0 20 20" fill="none" xmlns="http://www.w3.org/2000/svg">
<path d="M7.5 2.5H4.16667C3.72464 2.5 3.30072 2.67559 2.98816 2.98816C2.67559 3.30072 2.5 3.72464 2.5 4.16667V7.5C2.5 7.94203 2.67559 8.36595 2.98816 8.67851C3.30072 8.99107 3.72464 9.16667 4.16667 9.16667H7.5C7.94203 9.16667 8.36595 8.99107 8.67851 8.67851C8.99107 8.36595 9.16667 7.94203 9.16667 7.5V4.16667C9.16667 3.72464 8.99107 3.30072 8.67851 2.98816C8.36595 2.67559 7.94203 2.5 7.5 2.5Z" fill="white"/>
<path d="M7.5 10.8333H4.16667C3.72464 10.8333 3.30072 11.0089 2.98816 11.3215C2.67559 11.634 2.5 12.058 2.5 12.5V15.8333C2.5 16.2754 2.67559 16.6993 2.98816 17.0118C3.30072 17.3244 3.72464 17.5 4.16667 17.5H7.5C7.94203 17.5 8.36595 17.3244 8.67851 17.0118C8.99107 16.6993 9.16667 16.2754 9.16667 15.8333V12.5C9.16667 12.058 8.99107 11.634 8.67851 11.3215C8.36595 11.0089 7.94203 10.8333 7.5 10.8333Z" fill="white"/>
<path d="M15.8333 10.8333H12.5C12.058 10.8333 11.634 11.0089 11.3215 11.3215C11.0089 11.634 10.8333 12.058 10.8333 12.5V15.8333C10.8333 16.2754 11.0089 16.6993 11.3215 17.0118C11.634 17.3244 12.058 17.5 12.5 17.5H15.8333C16.2754 17.5 16.6993 17.3244 17.0118 17.0118C17.3244 16.6993 17.5 16.2754 17.5 15.8333V12.5C17.5 12.058 17.3244 11.634 17.0118 11.3215C16.6993 11.0089 16.2754 10.8333 15.8333 10.8333Z" fill="white"/>
<path d="M14.1667 2.5C14.3708 2.50003 14.5678 2.57496 14.7203 2.7106C14.8728 2.84623 14.9703 3.03312 14.9942 3.23583L15 3.33333V5H16.6667C16.8791 5.00024 17.0834 5.08157 17.2378 5.22737C17.3922 5.37318 17.4852 5.57246 17.4976 5.7845C17.5101 5.99653 17.4411 6.20532 17.3048 6.36819C17.1684 6.53107 16.9751 6.63575 16.7642 6.66083L16.6667 6.66667H15V8.33333C14.9998 8.54573 14.9184 8.75003 14.7726 8.90447C14.6268 9.05892 14.4275 9.15186 14.2155 9.16431C14.0035 9.17676 13.7947 9.10777 13.6318 8.97145C13.4689 8.83512 13.3642 8.64175 13.3392 8.43083L13.3333 8.33333V6.66667H11.6667C11.4543 6.66643 11.25 6.5851 11.0955 6.43929C10.9411 6.29349 10.8481 6.09421 10.8357 5.88217C10.8232 5.67014 10.8922 5.46135 11.0285 5.29847C11.1649 5.1356 11.3582 5.03092 11.5692 5.00583L11.6667 5H13.3333V3.33333C13.3333 3.11232 13.4211 2.90036 13.5774 2.74408C13.7337 2.5878 13.9456 2.5 14.1667 2.5Z" fill="white"/>
<path d="M7.5 2.5H4.16667C3.72464 2.5 3.30072 2.67559 2.98816 2.98816C2.67559 3.30072 2.5 3.72464 2.5 4.16667V7.5C2.5 7.94203 2.67559 8.36595 2.98816 8.67851C3.30072 8.99107 3.72464 9.16667 4.16667 9.16667H7.5C7.94203 9.16667 8.36595 8.99107 8.67851 8.67851C8.99107 8.36595 9.16667 7.94203 9.16667 7.5V4.16667C9.16667 3.72464 8.99107 3.30072 8.67851 2.98816C8.36595 2.67559 7.94203 2.5 7.5 2.5Z" stroke="white"/>
<path d="M7.5 10.8333H4.16667C3.72464 10.8333 3.30072 11.0089 2.98816 11.3215C2.67559 11.634 2.5 12.058 2.5 12.5V15.8333C2.5 16.2754 2.67559 16.6993 2.98816 17.0118C3.30072 17.3244 3.72464 17.5 4.16667 17.5H7.5C7.94203 17.5 8.36595 17.3244 8.67851 17.0118C8.99107 16.6993 9.16667 16.2754 9.16667 15.8333V12.5C9.16667 12.058 8.99107 11.634 8.67851 11.3215C8.36595 11.0089 7.94203 10.8333 7.5 10.8333Z" stroke="white"/>
<path d="M15.8333 10.8333H12.5C12.058 10.8333 11.634 11.0089 11.3215 11.3215C11.0089 11.634 10.8333 12.058 10.8333 12.5V15.8333C10.8333 16.2754 11.0089 16.6993 11.3215 17.0118C11.634 17.3244 12.058 17.5 12.5 17.5H15.8333C16.2754 17.5 16.6993 17.3244 17.0118 17.0118C17.3244 16.6993 17.5 16.2754 17.5 15.8333V12.5C17.5 12.058 17.3244 11.634 17.0118 11.3215C16.6993 11.0089 16.2754 10.8333 15.8333 10.8333Z" stroke="white"/>
<path d="M14.1667 2.5C14.3708 2.50003 14.5678 2.57496 14.7203 2.7106C14.8728 2.84623 14.9703 3.03312 14.9942 3.23583L15 3.33333V5H16.6667C16.8791 5.00024 17.0834 5.08157 17.2378 5.22737C17.3922 5.37318 17.4852 5.57246 17.4976 5.7845C17.5101 5.99653 17.4411 6.20532 17.3048 6.36819C17.1684 6.53107 16.9751 6.63575 16.7642 6.66083L16.6667 6.66667H15V8.33333C14.9998 8.54573 14.9184 8.75003 14.7726 8.90447C14.6268 9.05892 14.4275 9.15186 14.2155 9.16431C14.0035 9.17676 13.7947 9.10777 13.6318 8.97145C13.4689 8.83512 13.3642 8.64175 13.3392 8.43083L13.3333 8.33333V6.66667H11.6667C11.4543 6.66643 11.25 6.5851 11.0955 6.43929C10.9411 6.29349 10.8481 6.09421 10.8357 5.88217C10.8232 5.67014 10.8922 5.46135 11.0285 5.29847C11.1649 5.1356 11.3582 5.03092 11.5692 5.00583L11.6667 5H13.3333V3.33333C13.3333 3.11232 13.4211 2.90036 13.5774 2.74408C13.7337 2.5878 13.9456 2.5 14.1667 2.5Z" stroke="white"/>
</svg>
